<svg style="position: absolute; width: 0; height: 0; overflow: hidden;" version="1.1" xmlns="http://www.w3.org/2000/svg" xmlns:xlink="http://www.w3.org/1999/xlink">
<defs>
<symbol id="icon-man2" viewBox="0 0 46 32">
<title>man2</title>
<path fill="#f0b289" style="fill: var(--color1, #f0b289)" d="M32.493 13.157h-0.631v-2.649c0-4.407-4.028-7.984-9.003-7.984s-9.003 3.578-9.003 7.984v2.649h-0.64c-0.487 0-0.883 0.351-0.883 0.784v2.001c0 0.964 0.387 1.901 1.090 2.631l0.424 0.442 0.009-0.117v0.117c0 0 1.153 7.597 6.669 10.165 1.298 0.604 2.226 0.739 4.091 0 6.065-2.397 7.254-10.165 7.254-10.165l0.424-0.442c0.703-0.739 1.090-1.667 1.090-2.631v-2.001c-0.009-0.433-0.406-0.784-0.892-0.784z"></path>
<path fill="#4e3726" style="fill: var(--color2, #4e3726)" d="M32.123 6.173c0.604-0.153 1.253 0.234 1.253 0.234-0.667-0.811-1.712-0.514-2.145-0.333 0.081-0.955 0.126-3.803-2.226-4.587 0 0 1.208 0.667 1.712 2.875-0.712-1.649-2.685-3.884-8.165-4.064-8.804-0.297-10.012 7.687-10.012 7.687l0.46 0.369 0.424 0.342 0.712 7.408c0 0 0.117-7.975 1.568-9.003s2.821 0.532 6.831 0.532c4.010 0 3.848-1.181 6.623-0.469 2.785 0.712 2.19 9.94 2.19 9.94s1.775-9.642 1.478-10.408c-0.108-0.315-0.397-0.46-0.703-0.523z"></path>
<path fill="#754c24" style="fill: var(--color3, #754c24)" d="M25.842 7.245c0 0-6.497-4.722-11.508-2.911 0 0 4.965-2.091 8.507-0.379 3.217 1.559 4.776 2.965 4.776 2.965l-1.775 0.324z"></path>
<path fill="#754c24" style="fill: var(--color3, #754c24)" d="M25.842 7.245c0 0-7.092-3.758-10.489-0.207 0 0 1.847-2.893 6.975-1.775s4.884 1.739 4.884 1.739l-1.37 0.243z"></path>
<path fill="#754c24" style="fill: var(--color3, #754c24)" d="M28.987 5.885c0 0-1.568-1.631-3.19-2.307 0 0 1.18 0.225 1.829 0.658s-1.361-1.424-2.334-1.721c0 0 2.010 0.505 3.343 1.685s1.298 1.505 1.298 1.505l-1.478-1.009c0 0 0.442 0.478 0.532 1.19z"></path>
<path fill="#4e3726" style="fill: var(--color2, #4e3726)" d="M21.391 12.688c0 0 0 0.559-0.559 0.802-0.478 0.207-3.181-0.478-3.938-0.315s-1.649 0.757-1.649 0.757 1.135-1.433 1.856-1.496c0.73-0.054 4.29 0.252 4.29 0.252z"></path>
<path fill="#4e3726" style="fill: var(--color2, #4e3726)" d="M24.292 12.778c0 0 0.018 0.559 0.577 0.784 0.478 0.198 3.163-0.568 3.929-0.433s1.667 0.703 1.667 0.703-1.18-1.397-1.901-1.433c-0.721-0.036-4.271 0.379-4.271 0.379z"></path>
<path fill="#4e3726" style="fill: var(--color2, #4e3726)" d="M31.619 16.248l-0.063-0.153c0 0-0.676 2.785-1.117 4.091-0.207 0.631-1.604 1.838-2.794 3.506 0 0-0.090 0.135-0.189 0.342-0.009-0.333-0.063-0.712-0.207-1.144-0.36-1.099-3.001-1.172-4.425-1.172-1.37 0-4.055 0.072-4.407 1.172-0.135 0.415-0.189 0.793-0.198 1.126-0.099-0.198-0.18-0.315-0.18-0.315-1.19-1.667-2.586-2.866-2.794-3.506-0.433-1.307-1.117-4.091-1.117-4.091l-0.063 0.153c0 0-0.424 2.397 0.162 4.749 0.288 1.144 2.343 6.029 3.217 7.11 0.054 0.072 0.117 0.144 0.18 0.216 0.216 0.198 0.406 0.171 0.505 0.072 0.036 0.568 0.108 1 0.207 1.162 0.424 0.658 2.343 2.433 4.497 2.433 2.145 0 4.073-1.775 4.488-2.433 0.099-0.162 0.171-0.595 0.207-1.172 0.090 0.108 0.288 0.144 0.514-0.063 0.063-0.072 0.117-0.144 0.18-0.216 0.874-1.081 2.938-5.966 3.217-7.11 0.604-2.361 0.18-4.758 0.18-4.758zM25.212 27.26c-1.523 0-1.433-1.397-1.433-1.397 0.117-0.117 0.784 0.063 0.784 0.063l0.018-0.261c0-0.216-1.036-0.324-1.73-0.324s-1.739 0.099-1.739 0.324l0.018 0.261c0 0 0.658-0.18 0.775-0.063 0 0 0.090 1.397-1.433 1.397s-1.748-0.18-1.748-1.757c0-0.171 0.018-0.333 0.045-0.514 0.198-0.532 0.667-1.217 1.847-1.217 1.73 0 2.145-0.604 2.217-0.73 0.117 0.126 0.505 0.73 2.226 0.73 1.162 0 1.649 0.667 1.847 1.199 0.036 0.18 0.054 0.342 0.054 0.523 0 1.586-0.225 1.766-1.748 1.766z"></path>
</symbol>
<symbol id="icon-man3" viewBox="0 0 46 32">
<title>man3</title>
<path fill="#f0b289" style="fill: var(--color1, #f0b289)" d="M30.76 10.76h-0.516v-2.167c0-3.604-3.294-6.53-7.363-6.53s-7.363 2.926-7.363 6.53v2.167h-0.523c-0.398 0-0.722 0.287-0.722 0.641v1.636c0 0.789 0.317 1.555 0.892 2.152l0.346 0.361 0.007-0.096v0.096c0 0 0.943 6.213 5.454 8.313 1.061 0.494 1.82 0.604 3.346 0 4.96-1.96 5.933-8.313 5.933-8.313l0.346-0.361c0.575-0.604 0.892-1.363 0.892-2.152v-1.636c0-0.354-0.324-0.641-0.73-0.641z"></path>
<path fill="#4e3726" style="fill: var(--color2, #4e3726)" d="M30.465 5.048c0.494-0.125 1.024 0.192 1.024 0.192-0.545-0.663-1.4-0.42-1.754-0.273 0.066-0.781 0.103-3.11-1.82-3.751 0 0 0.988 0.545 1.4 2.351-0.582-1.349-2.196-3.176-6.677-3.324-7.2-0.243-8.188 6.287-8.188 6.287l0.376 0.302 0.346 0.28 0.582 6.058c0 0 0.096-6.522 1.282-7.362s2.307 0.435 5.586 0.435c3.28 0 3.147-0.965 5.417-0.383 2.277 0.582 1.791 8.129 1.791 8.129s1.452-7.886 1.209-8.512c-0.088-0.258-0.324-0.376-0.575-0.427z"></path>
<path fill="#754c24" style="fill: var(--color3, #754c24)" d="M25.328 5.925c0 0-5.314-3.862-9.411-2.38 0 0 4.061-1.71 6.957-0.31 2.631 1.275 3.906 2.425 3.906 2.425l-1.452 0.265z"></path>
<path fill="#754c24" style="fill: var(--color3, #754c24)" d="M25.328 5.925c0 0-5.8-3.073-8.579-0.17 0 0 1.511-2.366 5.704-1.452s3.994 1.422 3.994 1.422l-1.12 0.199z"></path>
<path fill="#754c24" style="fill: var(--color3, #754c24)" d="M27.9 4.812c0 0-1.282-1.334-2.609-1.887 0 0 0.965 0.184 1.496 0.538 0.538 0.354-1.113-1.164-1.909-1.408 0 0 1.643 0.413 2.734 1.378s1.061 1.231 1.061 1.231l-1.209-0.825c0 0 0.361 0.391 0.435 0.973z"></path>
<path fill="#4e3726" style="fill: var(--color2, #4e3726)" d="M21.68 10.377c0 0 0 0.457-0.457 0.656-0.391 0.169-2.602-0.391-3.221-0.258s-1.349 0.619-1.349 0.619 0.929-1.172 1.518-1.223c0.604-0.044 3.508 0.206 3.508 0.206z"></path>
<path fill="#4e3726" style="fill: var(--color2, #4e3726)" d="M24.053 10.45c0 0 0.015 0.457 0.472 0.641 0.391 0.162 2.587-0.464 3.213-0.354s1.363 0.575 1.363 0.575-0.965-1.142-1.555-1.172c-0.59-0.029-3.493 0.31-3.493 0.31z"></path>
<path fill="#4e3726" style="fill: var(--color2, #4e3726)" d="M31.482 22.847c-0.192-0.479 0.479-1.702 0.147-2.285-0.339-0.575 0.287-2.034 0-2.661s-0.722-0.597-1.157-1.268c-0.435-0.678-0.339-1.334-0.339-1.334s-0.007 0.022-0.022 0.074c0.044-1.179-0.111-2.078-0.111-2.078l-0.052-0.125c0 0-0.081 1.702-0.435 2.771-0.169 0.516-1.931 1.445-2.904 2.808 0 0-0.022 0.081-0.059 0.206-0.022-0.074-0.044-0.155-0.066-0.236-0.295-0.899-2.454-0.958-3.619-0.958-1.12 0-3.316 0.059-3.604 0.958-0.037 0.111-0.059 0.214-0.088 0.31-0.044-0.177-0.081-0.28-0.081-0.287-0.973-1.363-2.734-2.285-2.904-2.808-0.354-1.069-0.435-2.771-0.435-2.771l-0.052 0.125c0 0-0.169 0.98-0.103 2.233-0.007 0.251-0.066 0.678-0.346 1.113-0.435 0.678-0.87 0.641-1.157 1.268s0.339 2.078 0 2.661c-0.339 0.575 0.339 1.798 0.147 2.285-0.192 0.479-0.479 0.339-0.722 1.496s0.848 3.759 1.806 4.96c0.965 1.201 3.243 2.697 7.539 2.697 4.304 0 6.574-1.496 7.532-2.697 0.965-1.201 2.041-3.803 1.806-4.96s-0.531-1.010-0.722-1.496zM21.054 19.449c1.415 0 1.754-0.494 1.813-0.597 0.096 0.103 0.413 0.597 1.82 0.597 1.010 0 1.393 0.612 1.54 1.054 0.022 0.118 0.037 0.236 0.022 0.354-0.088 0.929-1.349 1.209-1.526 1.201-0.936-0.029-1.076-0.906-1.076-0.906 0.096-0.096 0.634 0.052 0.634 0.052l0.015-0.214c0-0.177-0.848-0.258-1.422-0.265-0.567 0-1.415 0.081-1.415 0.265l0.015 0.214c0 0 0.538-0.147 0.634-0.052 0 0-0.14 0.877-1.076 0.906-0.177 0.007-1.437-0.273-1.526-1.201-0.015-0.14 0.007-0.265 0.037-0.405 0.147-0.435 0.538-1.002 1.511-1.002z"></path>
</symbol>
<symbol id="icon-man4" viewBox="0 0 46 32">
<title>man4</title>
<path fill="#f0b289" style="fill: var(--color1, #f0b289)" d="M32.496 13.161h-0.631v-2.65c0-4.408-4.029-7.987-9.005-7.987s-9.005 3.579-9.005 7.987v2.65h-0.64c-0.487 0-0.883 0.352-0.883 0.784v2.001c0 0.964 0.388 1.902 1.091 2.632l0.424 0.442 0.009-0.117v0.117c0 0 1.154 7.599 6.67 10.168 1.298 0.604 2.227 0.739 4.092 0 6.067-2.398 7.256-10.168 7.256-10.168l0.424-0.442c0.703-0.739 1.091-1.668 1.091-2.632v-2.001c-0.009-0.433-0.397-0.784-0.892-0.784z"></path>
<path fill="#4e3726" style="fill: var(--color2, #4e3726)" d="M32.135 6.175c0.604-0.153 1.253 0.234 1.253 0.234-0.667-0.811-1.713-0.514-2.145-0.333 0.081-0.955 0.126-3.804-2.227-4.588 0 0 1.208 0.667 1.713 2.875-0.712-1.65-2.686-3.885-8.167-4.065-8.807-0.297-10.015 7.689-10.015 7.689l0.46 0.37 0.424 0.343 0.712 7.41c0 0 0.117-7.977 1.568-9.005s2.821 0.532 6.833 0.532c4.020 0 3.849-1.181 6.625-0.469 2.785 0.712 2.19 9.943 2.19 9.943s1.776-9.645 1.478-10.411c-0.108-0.315-0.397-0.46-0.703-0.523z"></path>
<path fill="#754c24" style="fill: var(--color3, #754c24)" d="M25.852 7.247c0 0-6.499-4.723-11.511-2.912 0 0 4.967-2.091 8.509-0.379 3.218 1.559 4.778 2.966 4.778 2.966l-1.776 0.325z"></path>
<path fill="#754c24" style="fill: var(--color3, #754c24)" d="M25.852 7.247c0 0-7.094-3.759-10.492-0.207 0 0 1.848-2.894 6.977-1.776s4.886 1.74 4.886 1.74l-1.37 0.243z"></path>
<path fill="#754c24" style="fill: var(--color3, #754c24)" d="M28.998 5.886c0 0-1.568-1.632-3.191-2.308 0 0 1.181 0.225 1.83 0.658 0.658 0.433-1.361-1.424-2.335-1.722 0 0 2.010 0.505 3.344 1.686s1.298 1.505 1.298 1.505l-1.478-1.010c0 0 0.442 0.478 0.532 1.19z"></path>
<path fill="#4e3726" style="fill: var(--color2, #4e3726)" d="M21.39 12.692c0 0 0 0.559-0.559 0.802-0.469 0.207-3.182-0.478-3.939-0.315s-1.65 0.757-1.65 0.757 1.136-1.433 1.857-1.496c0.739-0.063 4.291 0.252 4.291 0.252z"></path>
<path fill="#4e3726" style="fill: var(--color2, #4e3726)" d="M24.293 12.782c0 0 0.018 0.559 0.577 0.784 0.478 0.198 3.164-0.568 3.93-0.433s1.668 0.703 1.668 0.703-1.181-1.397-1.902-1.433c-0.721-0.036-4.273 0.379-4.273 0.379z"></path>
<path fill="#4e3726" style="fill: var(--color2, #4e3726)" d="M27.466 24.347v0c0.027-0.397-0.018-0.883-0.198-1.451-0.361-1.1-3.002-1.172-4.426-1.172-1.37 0-4.056 0.072-4.408 1.172-0.18 0.55-0.225 1.028-0.198 1.424v0c-0.090 1.893-0.153 4.814 0.117 5.246 0.424 0.658 2.344 2.434 4.498 2.434 2.145 0 4.074-1.776 4.489-2.434 0.279-0.433 0.207-3.326 0.126-5.219zM25.212 27.268c-1.523 0-1.433-1.397-1.433-1.397 0.117-0.117 0.784 0.063 0.784 0.063l0.018-0.261c0-0.216-1.037-0.325-1.731-0.325s-1.74 0.099-1.74 0.325l0.018 0.261c0 0 0.658-0.18 0.775-0.063 0 0 0.090 1.397-1.433 1.397s-1.749-0.18-1.749-1.758c0-0.171 0.018-0.334 0.045-0.514 0.198-0.532 0.676-1.217 1.848-1.217 1.731 0 2.145-0.604 2.217-0.73 0.117 0.126 0.505 0.73 2.227 0.73 1.163 0 1.65 0.667 1.848 1.199 0.036 0.18 0.054 0.343 0.054 0.523 0.009 1.586-0.225 1.767-1.749 1.767z"></path>
</symbol>
<symbol id="icon-man5" viewBox="0 0 46 32">
<title>man5</title>
<path fill="#f0b289" style="fill: var(--color1, #f0b289)" d="M33.163 14.072h-0.675v-2.834c0-4.713-4.308-8.54-9.629-8.54s-9.629 3.826-9.629 8.54v2.834h-0.684c-0.52 0-0.945 0.376-0.945 0.839v2.14c0 1.031 0.414 2.034 1.166 2.814l0.453 0.472 0.010-0.125v0.125c0 0 1.234 8.125 7.133 10.872 1.388 0.646 2.381 0.79 4.376 0 6.487-2.564 7.759-10.872 7.759-10.872l0.453-0.472c0.752-0.79 1.166-1.783 1.166-2.814v-2.14c-0.010-0.463-0.434-0.839-0.954-0.839z"></path>
<path fill="#4e3726" style="fill: var(--color2, #4e3726)" d="M32.768 6.602c0.646-0.164 1.34 0.251 1.34 0.251-0.713-0.867-1.831-0.549-2.294-0.357 0.087-1.022 0.135-4.067-2.381-4.906 0 0 1.292 0.713 1.831 3.075-0.761-1.764-2.872-4.154-8.733-4.347-9.417-0.318-10.708 8.222-10.708 8.222l0.492 0.395 0.453 0.366 0.761 7.923c0 0 0.125-8.53 1.677-9.629s3.017 0.569 7.306 0.569 4.116-1.263 7.084-0.501c2.988 0.752 2.352 10.622 2.352 10.622s1.899-10.313 1.581-11.133c-0.116-0.328-0.424-0.482-0.761-0.549z"></path>
<path fill="#754c24" style="fill: var(--color3, #754c24)" d="M26.059 7.749c0 0-6.949-5.051-12.308-3.113 0 0 5.311-2.236 9.099-0.405 3.441 1.668 5.108 3.171 5.108 3.171l-1.899 0.347z"></path>
<path fill="#754c24" style="fill: var(--color3, #754c24)" d="M26.059 7.749c0 0-7.586-4.019-11.219-0.222 0 0 1.976-3.094 7.46-1.899s5.224 1.86 5.224 1.86l-1.465 0.26z"></path>
<path fill="#754c24" style="fill: var(--color3, #754c24)" d="M29.423 6.294c0 0-1.677-1.745-3.422-2.467 0 0 1.263 0.241 1.957 0.704 0.704 0.463-1.455-1.523-2.496-1.841 0 0 2.149 0.54 3.576 1.802s1.388 1.61 1.388 1.61l-1.581-1.080c0.010 0 0.482 0.511 0.578 1.272z"></path>
<path fill="#4e3726" style="fill: var(--color2, #4e3726)" d="M21.288 13.571c0 0 0 0.598-0.598 0.858-0.511 0.222-3.402-0.511-4.212-0.337s-1.764 0.81-1.764 0.81 1.214-1.533 1.986-1.6c0.781-0.067 4.588 0.27 4.588 0.27z"></path>
<path fill="#4e3726" style="fill: var(--color2, #4e3726)" d="M24.392 13.668c0 0 0.019 0.598 0.617 0.839 0.511 0.212 3.383-0.607 4.202-0.463s1.783 0.752 1.783 0.752-1.263-1.494-2.034-1.533c-0.771-0.039-4.569 0.405-4.569 0.405z"></path>
<path fill="#4e3726" style="fill: var(--color2, #4e3726)" d="M27.563 24.482c-0.386-1.176-3.21-1.253-4.732-1.253-1.465 0-4.337 0.077-4.713 1.253-0.598 1.851 0.222 2.911 0.222 2.911s0.058-1.966 2.12-1.966c1.851 0 2.294-0.646 2.371-0.781 0.125 0.135 0.54 0.781 2.381 0.781 2.063 0 2.13 1.966 2.13 1.966s0.829-1.060 0.222-2.911z"></path>
</symbol>
<symbol id="icon-man6" viewBox="0 0 46 32">
<title>man6</title>
<path fill="#f0b289" style="fill: var(--color1, #f0b289)" d="M32.496 13.161h-0.631v-2.65c0-4.408-4.029-7.987-9.005-7.987s-9.005 3.579-9.005 7.987v2.65h-0.64c-0.487 0-0.883 0.352-0.883 0.784v2.001c0 0.964 0.388 1.902 1.091 2.632l0.424 0.442 0.009-0.117v0.117c0 0 1.154 7.599 6.67 10.168 1.298 0.604 2.227 0.739 4.092 0 6.067-2.398 7.256-10.168 7.256-10.168l0.424-0.442c0.703-0.739 1.091-1.668 1.091-2.632v-2.001c-0.009-0.433-0.406-0.784-0.892-0.784z"></path>
<path fill="#4e3726" style="fill: var(--color2, #4e3726)" d="M32.126 6.175c0.604-0.153 1.253 0.234 1.253 0.234-0.667-0.811-1.713-0.514-2.145-0.333 0.081-0.955 0.126-3.804-2.227-4.588 0 0 1.208 0.667 1.713 2.876-0.712-1.65-2.686-3.885-8.167-4.065-8.807-0.297-10.015 7.689-10.015 7.689l0.46 0.37 0.424 0.343 0.712 7.41c0 0 0.117-7.977 1.568-9.005s2.821 0.532 6.833 0.532c4.011 0 3.849-1.181 6.625-0.469 2.785 0.712 2.19 9.943 2.19 9.943s1.776-9.645 1.478-10.411c-0.108-0.315-0.397-0.46-0.703-0.523z"></path>
<path fill="#754c24" style="fill: var(--color3, #754c24)" d="M25.843 7.247c0 0-6.499-4.723-11.511-2.912 0 0 4.967-2.091 8.509-0.379 3.218 1.559 4.778 2.966 4.778 2.966l-1.776 0.325z"></path>
<path fill="#754c24" style="fill: var(--color3, #754c24)" d="M25.843 7.247c0 0-7.094-3.759-10.492-0.207 0 0 1.848-2.894 6.977-1.776s4.886 1.74 4.886 1.74l-1.37 0.243z"></path>
<path fill="#754c24" style="fill: var(--color3, #754c24)" d="M28.989 5.886c0 0-1.568-1.632-3.191-2.308 0 0 1.181 0.225 1.83 0.658 0.658 0.433-1.361-1.424-2.335-1.722 0 0 2.010 0.505 3.344 1.686s1.298 1.505 1.298 1.505l-1.478-1.010c0 0 0.442 0.478 0.532 1.19z"></path>
<path fill="#4e3726" style="fill: var(--color2, #4e3726)" d="M21.39 12.692c0 0 0 0.559-0.559 0.802-0.478 0.207-3.182-0.478-3.939-0.315s-1.65 0.757-1.65 0.757 1.136-1.433 1.857-1.496c0.73-0.063 4.291 0.252 4.291 0.252z"></path>
<path fill="#4e3726" style="fill: var(--color2, #4e3726)" d="M24.293 12.782c0 0 0.018 0.559 0.577 0.784 0.478 0.198 3.164-0.568 3.93-0.433s1.668 0.703 1.668 0.703-1.181-1.397-1.902-1.433c-0.721-0.036-4.273 0.379-4.273 0.379z"></path>
<path fill="#4e3726" style="fill: var(--color2, #4e3726)" d="M27.88 27.223l-1.019-2.371c0.054 0.234 0.081 0.442 0.081 0.658 0 1.578-0.225 1.758-1.749 1.758s-1.433-1.397-1.433-1.397c0.117-0.117 0.784 0.063 0.784 0.063l0.027-0.261c0-0.216-1.073-0.315-1.722-0.325-0.694 0-1.731 0.099-1.731 0.325l0.018 0.261c0 0 0.658-0.18 0.775-0.063 0 0 0.090 1.397-1.433 1.397s-1.749-0.18-1.749-1.758c0-0.225 0.027-0.424 0.081-0.658l-1.019 2.371c-0.018 1.433 0.207 1.857 0.568 2.344 0.46 0.631 2.344 2.434 4.489 2.434 2.127 0 4.020-1.803 4.48-2.434 0.343-0.487 0.559-0.91 0.55-2.344z"></path>
</symbol>
<symbol id="icon-man" viewBox="0 0 46 32">
<title>man</title>
<path fill="#f0b289" style="fill: var(--color1, #f0b289)" d="M33.163 14.072h-0.675v-2.834c0-4.713-4.308-8.54-9.629-8.54s-9.629 3.826-9.629 8.54v2.834h-0.684c-0.52 0-0.945 0.376-0.945 0.839v2.14c0 1.031 0.414 2.034 1.166 2.814l0.453 0.472 0.010-0.125v0.125c0 0 1.234 8.125 7.133 10.872 1.388 0.646 2.381 0.79 4.376 0 6.487-2.564 7.759-10.872 7.759-10.872l0.453-0.472c0.752-0.79 1.166-1.783 1.166-2.814v-2.14c-0.010-0.463-0.434-0.839-0.954-0.839z"></path>
<path fill="#4e3726" style="fill: var(--color2, #4e3726)" d="M32.768 6.602c0.646-0.164 1.34 0.251 1.34 0.251-0.713-0.867-1.831-0.549-2.294-0.357 0.087-1.022 0.135-4.067-2.381-4.906 0 0 1.292 0.713 1.831 3.075-0.761-1.764-2.872-4.154-8.733-4.347-9.417-0.318-10.708 8.222-10.708 8.222l0.492 0.395 0.453 0.366 0.761 7.923c0 0 0.125-8.53 1.677-9.629s3.017 0.569 7.306 0.569 4.116-1.263 7.084-0.501c2.978 0.761 2.342 10.631 2.342 10.631s1.899-10.313 1.581-11.133c-0.106-0.337-0.414-0.492-0.752-0.559z"></path>
<path fill="#754c24" style="fill: var(--color3, #754c24)" d="M26.059 7.749c0 0-6.949-5.051-12.308-3.113 0 0 5.311-2.236 9.099-0.405 3.441 1.668 5.108 3.171 5.108 3.171l-1.899 0.347z"></path>
<path fill="#754c24" style="fill: var(--color3, #754c24)" d="M26.059 7.749c0 0-7.586-4.019-11.219-0.222 0 0 1.976-3.094 7.46-1.899s5.224 1.86 5.224 1.86l-1.465 0.26z"></path>
<path fill="#754c24" style="fill: var(--color3, #754c24)" d="M29.423 6.294c0 0-1.677-1.745-3.412-2.467 0 0 1.263 0.241 1.957 0.704 0.704 0.463-1.455-1.523-2.496-1.841 0 0 2.149 0.54 3.576 1.802s1.388 1.61 1.388 1.61l-1.581-1.080c0 0 0.472 0.511 0.569 1.272z"></path>
<path fill="#4e3726" style="fill: var(--color2, #4e3726)" d="M21.288 13.571c0 0 0 0.598-0.598 0.858-0.511 0.222-3.402-0.511-4.212-0.337s-1.764 0.81-1.764 0.81 1.214-1.533 1.986-1.6c0.781-0.058 4.588 0.27 4.588 0.27z"></path>
<path fill="#4e3726" style="fill: var(--color2, #4e3726)" d="M24.392 13.667c0 0 0.019 0.598 0.617 0.839 0.511 0.212 3.383-0.607 4.202-0.463s1.783 0.752 1.783 0.752-1.263-1.484-2.034-1.533c-0.771-0.039-4.569 0.405-4.569 0.405z"></path>
<path fill="#4e3726" style="fill: var(--color2, #4e3726)" d="M17.278 30.294c0.366 0.328 0.665 0.087 0.607-0.164-0.067-0.299 0.145-1.089 0.405-2.294 0.27-1.195-0.569-2.487-0.578-2.496-1.272-1.783-2.766-3.065-2.988-3.749-0.463-1.398-1.195-4.376-1.195-4.376l-0.067 0.164c0 0-0.453 2.564 0.174 5.080 0.308 1.224 2.506 6.448 3.441 7.605 0.077 0.077 0.135 0.154 0.202 0.231z"></path>
<path fill="#4e3726" style="fill: var(--color2, #4e3726)" d="M28.43 30.294c-0.366 0.328-0.665 0.087-0.607-0.164 0.067-0.299-0.145-1.089-0.405-2.294-0.27-1.195 0.569-2.487 0.578-2.496 1.272-1.783 2.766-3.065 2.988-3.749 0.463-1.398 1.195-4.376 1.195-4.376l0.067 0.164c0 0 0.453 2.564-0.173 5.080-0.308 1.224-2.506 6.448-3.441 7.605-0.077 0.077-0.145 0.154-0.202 0.231z"></path>
<path fill="#4e3726" style="fill: var(--color2, #4e3726)" d="M27.563 24.482c-0.386-1.176-3.21-1.253-4.732-1.253-1.465 0-4.337 0.077-4.713 1.253-0.598 1.851 0.222 2.911 0.222 2.911s0.058-1.966 2.12-1.966c1.851 0 2.294-0.646 2.371-0.781 0.125 0.135 0.54 0.781 2.381 0.781 2.063 0 2.13 1.966 2.13 1.966s0.829-1.060 0.222-2.911z"></path>
</symbol>
</defs>
</svg>
