<svg style="position: absolute; width: 0; height: 0; overflow: hidden;display:none;" version="1.1" xmlns="http://www.w3.org/2000/svg" xmlns:xlink="http://www.w3.org/1999/xlink">
<defs>
<symbol id="icon-man2" viewBox="0 0 46 32">
<title>man2</title>
<path fill="#f0b289" style="fill: var(--color1, #f0b289)" d="M32.493 13.157h-0.631v-2.649c0-4.407-4.028-7.984-9.003-7.984s-9.003 3.578-9.003 7.984v2.649h-0.64c-0.487 0-0.883 0.351-0.883 0.784v2.001c0 0.964 0.387 1.901 1.090 2.631l0.424 0.442 0.009-0.117v0.117c0 0 1.153 7.597 6.669 10.165 1.298 0.604 2.226 0.739 4.091 0 6.065-2.397 7.254-10.165 7.254-10.165l0.424-0.442c0.703-0.739 1.090-1.667 1.090-2.631v-2.001c-0.009-0.433-0.406-0.784-0.892-0.784z"></path>
<path fill="#4e3726" style="fill: var(--color2, #4e3726)" d="M32.123 6.173c0.604-0.153 1.253 0.234 1.253 0.234-0.667-0.811-1.712-0.514-2.145-0.333 0.081-0.955 0.126-3.803-2.226-4.587 0 0 1.208 0.667 1.712 2.875-0.712-1.649-2.685-3.884-8.165-4.064-8.804-0.297-10.012 7.687-10.012 7.687l0.46 0.369 0.424 0.342 0.712 7.408c0 0 0.117-7.975 1.568-9.003s2.821 0.532 6.831 0.532c4.010 0 3.848-1.181 6.623-0.469 2.785 0.712 2.19 9.94 2.19 9.94s1.775-9.642 1.478-10.408c-0.108-0.315-0.397-0.46-0.703-0.523z"></path>
<path fill="#754c24" style="fill: var(--color3, #754c24)" d="M25.842 7.245c0 0-6.497-4.722-11.508-2.911 0 0 4.965-2.091 8.507-0.379 3.217 1.559 4.776 2.965 4.776 2.965l-1.775 0.324z"></path>
<path fill="#754c24" style="fill: var(--color3, #754c24)" d="M25.842 7.245c0 0-7.092-3.758-10.489-0.207 0 0 1.847-2.893 6.975-1.775s4.884 1.739 4.884 1.739l-1.37 0.243z"></path>
<path fill="#754c24" style="fill: var(--color3, #754c24)" d="M28.987 5.885c0 0-1.568-1.631-3.19-2.307 0 0 1.18 0.225 1.829 0.658s-1.361-1.424-2.334-1.721c0 0 2.010 0.505 3.343 1.685s1.298 1.505 1.298 1.505l-1.478-1.009c0 0 0.442 0.478 0.532 1.19z"></path>
<path fill="#4e3726" style="fill: var(--color2, #4e3726)" d="M21.391 12.688c0 0 0 0.559-0.559 0.802-0.478 0.207-3.181-0.478-3.938-0.315s-1.649 0.757-1.649 0.757 1.135-1.433 1.856-1.496c0.73-0.054 4.29 0.252 4.29 0.252z"></path>
<path fill="#4e3726" style="fill: var(--color2, #4e3726)" d="M24.292 12.778c0 0 0.018 0.559 0.577 0.784 0.478 0.198 3.163-0.568 3.929-0.433s1.667 0.703 1.667 0.703-1.18-1.397-1.901-1.433c-0.721-0.036-4.271 0.379-4.271 0.379z"></path>
<path fill="#4e3726" style="fill: var(--color2, #4e3726)" d="M31.619 16.248l-0.063-0.153c0 0-0.676 2.785-1.117 4.091-0.207 0.631-1.604 1.838-2.794 3.506 0 0-0.090 0.135-0.189 0.342-0.009-0.333-0.063-0.712-0.207-1.144-0.36-1.099-3.001-1.172-4.425-1.172-1.37 0-4.055 0.072-4.407 1.172-0.135 0.415-0.189 0.793-0.198 1.126-0.099-0.198-0.18-0.315-0.18-0.315-1.19-1.667-2.586-2.866-2.794-3.506-0.433-1.307-1.117-4.091-1.117-4.091l-0.063 0.153c0 0-0.424 2.397 0.162 4.749 0.288 1.144 2.343 6.029 3.217 7.11 0.054 0.072 0.117 0.144 0.18 0.216 0.216 0.198 0.406 0.171 0.505 0.072 0.036 0.568 0.108 1 0.207 1.162 0.424 0.658 2.343 2.433 4.497 2.433 2.145 0 4.073-1.775 4.488-2.433 0.099-0.162 0.171-0.595 0.207-1.172 0.090 0.108 0.288 0.144 0.514-0.063 0.063-0.072 0.117-0.144 0.18-0.216 0.874-1.081 2.938-5.966 3.217-7.11 0.604-2.361 0.18-4.758 0.18-4.758zM25.212 27.26c-1.523 0-1.433-1.397-1.433-1.397 0.117-0.117 0.784 0.063 0.784 0.063l0.018-0.261c0-0.216-1.036-0.324-1.73-0.324s-1.739 0.099-1.739 0.324l0.018 0.261c0 0 0.658-0.18 0.775-0.063 0 0 0.090 1.397-1.433 1.397s-1.748-0.18-1.748-1.757c0-0.171 0.018-0.333 0.045-0.514 0.198-0.532 0.667-1.217 1.847-1.217 1.73 0 2.145-0.604 2.217-0.73 0.117 0.126 0.505 0.73 2.226 0.73 1.162 0 1.649 0.667 1.847 1.199 0.036 0.18 0.054 0.342 0.054 0.523 0 1.586-0.225 1.766-1.748 1.766z"></path>
</symbol>
<symbol id="icon-man3" viewBox="0 0 46 32">
<title>man3</title>
<path fill="#f0b289" style="fill: var(--color1, #f0b289)" d="M30.76 10.76h-0.516v-2.167c0-3.604-3.294-6.53-7.363-6.53s-7.363 2.926-7.363 6.53v2.167h-0.523c-0.398 0-0.722 0.287-0.722 0.641v1.636c0 0.789 0.317 1.555 0.892 2.152l0.346 0.361 0.007-0.096v0.096c0 0 0.943 6.213 5.454 8.313 1.061 0.494 1.82 0.604 3.346 0 4.96-1.96 5.933-8.313 5.933-8.313l0.346-0.361c0.575-0.604 0.892-1.363 0.892-2.152v-1.636c0-0.354-0.324-0.641-0.73-0.641z"></path>
<path fill="#4e3726" style="fill: var(--color2, #4e3726)" d="M30.465 5.048c0.494-0.125 1.024 0.192 1.024 0.192-0.545-0.663-1.4-0.42-1.754-0.273 0.066-0.781 0.103-3.11-1.82-3.751 0 0 0.988 0.545 1.4 2.351-0.582-1.349-2.196-3.176-6.677-3.324-7.2-0.243-8.188 6.287-8.188 6.287l0.376 0.302 0.346 0.28 0.582 6.058c0 0 0.096-6.522 1.282-7.362s2.307 0.435 5.586 0.435c3.28 0 3.147-0.965 5.417-0.383 2.277 0.582 1.791 8.129 1.791 8.129s1.452-7.886 1.209-8.512c-0.088-0.258-0.324-0.376-0.575-0.427z"></path>
<path fill="#754c24" style="fill: var(--color3, #754c24)" d="M25.328 5.925c0 0-5.314-3.862-9.411-2.38 0 0 4.061-1.71 6.957-0.31 2.631 1.275 3.906 2.425 3.906 2.425l-1.452 0.265z"></path>
<path fill="#754c24" style="fill: var(--color3, #754c24)" d="M25.328 5.925c0 0-5.8-3.073-8.579-0.17 0 0 1.511-2.366 5.704-1.452s3.994 1.422 3.994 1.422l-1.12 0.199z"></path>
<path fill="#754c24" style="fill: var(--color3, #754c24)" d="M27.9 4.812c0 0-1.282-1.334-2.609-1.887 0 0 0.965 0.184 1.496 0.538 0.538 0.354-1.113-1.164-1.909-1.408 0 0 1.643 0.413 2.734 1.378s1.061 1.231 1.061 1.231l-1.209-0.825c0 0 0.361 0.391 0.435 0.973z"></path>
<path fill="#4e3726" style="fill: var(--color2, #4e3726)" d="M21.68 10.377c0 0 0 0.457-0.457 0.656-0.391 0.169-2.602-0.391-3.221-0.258s-1.349 0.619-1.349 0.619 0.929-1.172 1.518-1.223c0.604-0.044 3.508 0.206 3.508 0.206z"></path>
<path fill="#4e3726" style="fill: var(--color2, #4e3726)" d="M24.053 10.45c0 0 0.015 0.457 0.472 0.641 0.391 0.162 2.587-0.464 3.213-0.354s1.363 0.575 1.363 0.575-0.965-1.142-1.555-1.172c-0.59-0.029-3.493 0.31-3.493 0.31z"></path>
<path fill="#4e3726" style="fill: var(--color2, #4e3726)" d="M31.482 22.847c-0.192-0.479 0.479-1.702 0.147-2.285-0.339-0.575 0.287-2.034 0-2.661s-0.722-0.597-1.157-1.268c-0.435-0.678-0.339-1.334-0.339-1.334s-0.007 0.022-0.022 0.074c0.044-1.179-0.111-2.078-0.111-2.078l-0.052-0.125c0 0-0.081 1.702-0.435 2.771-0.169 0.516-1.931 1.445-2.904 2.808 0 0-0.022 0.081-0.059 0.206-0.022-0.074-0.044-0.155-0.066-0.236-0.295-0.899-2.454-0.958-3.619-0.958-1.12 0-3.316 0.059-3.604 0.958-0.037 0.111-0.059 0.214-0.088 0.31-0.044-0.177-0.081-0.28-0.081-0.287-0.973-1.363-2.734-2.285-2.904-2.808-0.354-1.069-0.435-2.771-0.435-2.771l-0.052 0.125c0 0-0.169 0.98-0.103 2.233-0.007 0.251-0.066 0.678-0.346 1.113-0.435 0.678-0.87 0.641-1.157 1.268s0.339 2.078 0 2.661c-0.339 0.575 0.339 1.798 0.147 2.285-0.192 0.479-0.479 0.339-0.722 1.496s0.848 3.759 1.806 4.96c0.965 1.201 3.243 2.697 7.539 2.697 4.304 0 6.574-1.496 7.532-2.697 0.965-1.201 2.041-3.803 1.806-4.96s-0.531-1.010-0.722-1.496zM21.054 19.449c1.415 0 1.754-0.494 1.813-0.597 0.096 0.103 0.413 0.597 1.82 0.597 1.010 0 1.393 0.612 1.54 1.054 0.022 0.118 0.037 0.236 0.022 0.354-0.088 0.929-1.349 1.209-1.526 1.201-0.936-0.029-1.076-0.906-1.076-0.906 0.096-0.096 0.634 0.052 0.634 0.052l0.015-0.214c0-0.177-0.848-0.258-1.422-0.265-0.567 0-1.415 0.081-1.415 0.265l0.015 0.214c0 0 0.538-0.147 0.634-0.052 0 0-0.14 0.877-1.076 0.906-0.177 0.007-1.437-0.273-1.526-1.201-0.015-0.14 0.007-0.265 0.037-0.405 0.147-0.435 0.538-1.002 1.511-1.002z"></path>
</symbol>
<symbol id="icon-man4" viewBox="0 0 46 32">
<title>man4</title>
<path fill="#f0b289" style="fill: var(--color1, #f0b289)" d="M32.496 13.161h-0.631v-2.65c0-4.408-4.029-7.987-9.005-7.987s-9.005 3.579-9.005 7.987v2.65h-0.64c-0.487 0-0.883 0.352-0.883 0.784v2.001c0 0.964 0.388 1.902 1.091 2.632l0.424 0.442 0.009-0.117v0.117c0 0 1.154 7.599 6.67 10.168 1.298 0.604 2.227 0.739 4.092 0 6.067-2.398 7.256-10.168 7.256-10.168l0.424-0.442c0.703-0.739 1.091-1.668 1.091-2.632v-2.001c-0.009-0.433-0.397-0.784-0.892-0.784z"></path>
<path fill="#4e3726" style="fill: var(--color2, #4e3726)" d="M32.135 6.175c0.604-0.153 1.253 0.234 1.253 0.234-0.667-0.811-1.713-0.514-2.145-0.333 0.081-0.955 0.126-3.804-2.227-4.588 0 0 1.208 0.667 1.713 2.875-0.712-1.65-2.686-3.885-8.167-4.065-8.807-0.297-10.015 7.689-10.015 7.689l0.46 0.37 0.424 0.343 0.712 7.41c0 0 0.117-7.977 1.568-9.005s2.821 0.532 6.833 0.532c4.020 0 3.849-1.181 6.625-0.469 2.785 0.712 2.19 9.943 2.19 9.943s1.776-9.645 1.478-10.411c-0.108-0.315-0.397-0.46-0.703-0.523z"></path>
<path fill="#754c24" style="fill: var(--color3, #754c24)" d="M25.852 7.247c0 0-6.499-4.723-11.511-2.912 0 0 4.967-2.091 8.509-0.379 3.218 1.559 4.778 2.966 4.778 2.966l-1.776 0.325z"></path>
<path fill="#754c24" style="fill: var(--color3, #754c24)" d="M25.852 7.247c0 0-7.094-3.759-10.492-0.207 0 0 1.848-2.894 6.977-1.776s4.886 1.74 4.886 1.74l-1.37 0.243z"></path>
<path fill="#754c24" style="fill: var(--color3, #754c24)" d="M28.998 5.886c0 0-1.568-1.632-3.191-2.308 0 0 1.181 0.225 1.83 0.658 0.658 0.433-1.361-1.424-2.335-1.722 0 0 2.010 0.505 3.344 1.686s1.298 1.505 1.298 1.505l-1.478-1.010c0 0 0.442 0.478 0.532 1.19z"></path>
<path fill="#4e3726" style="fill: var(--color2, #4e3726)" d="M21.39 12.692c0 0 0 0.559-0.559 0.802-0.469 0.207-3.182-0.478-3.939-0.315s-1.65 0.757-1.65 0.757 1.136-1.433 1.857-1.496c0.739-0.063 4.291 0.252 4.291 0.252z"></path>
<path fill="#4e3726" style="fill: var(--color2, #4e3726)" d="M24.293 12.782c0 0 0.018 0.559 0.577 0.784 0.478 0.198 3.164-0.568 3.93-0.433s1.668 0.703 1.668 0.703-1.181-1.397-1.902-1.433c-0.721-0.036-4.273 0.379-4.273 0.379z"></path>
<path fill="#4e3726" style="fill: var(--color2, #4e3726)" d="M27.466 24.347v0c0.027-0.397-0.018-0.883-0.198-1.451-0.361-1.1-3.002-1.172-4.426-1.172-1.37 0-4.056 0.072-4.408 1.172-0.18 0.55-0.225 1.028-0.198 1.424v0c-0.090 1.893-0.153 4.814 0.117 5.246 0.424 0.658 2.344 2.434 4.498 2.434 2.145 0 4.074-1.776 4.489-2.434 0.279-0.433 0.207-3.326 0.126-5.219zM25.212 27.268c-1.523 0-1.433-1.397-1.433-1.397 0.117-0.117 0.784 0.063 0.784 0.063l0.018-0.261c0-0.216-1.037-0.325-1.731-0.325s-1.74 0.099-1.74 0.325l0.018 0.261c0 0 0.658-0.18 0.775-0.063 0 0 0.090 1.397-1.433 1.397s-1.749-0.18-1.749-1.758c0-0.171 0.018-0.334 0.045-0.514 0.198-0.532 0.676-1.217 1.848-1.217 1.731 0 2.145-0.604 2.217-0.73 0.117 0.126 0.505 0.73 2.227 0.73 1.163 0 1.65 0.667 1.848 1.199 0.036 0.18 0.054 0.343 0.054 0.523 0.009 1.586-0.225 1.767-1.749 1.767z"></path>
</symbol>
<symbol id="icon-man5" viewBox="0 0 46 32">
<title>man5</title>
<path fill="#f0b289" style="fill: var(--color1, #f0b289)" d="M33.163 14.072h-0.675v-2.834c0-4.713-4.308-8.54-9.629-8.54s-9.629 3.826-9.629 8.54v2.834h-0.684c-0.52 0-0.945 0.376-0.945 0.839v2.14c0 1.031 0.414 2.034 1.166 2.814l0.453 0.472 0.010-0.125v0.125c0 0 1.234 8.125 7.133 10.872 1.388 0.646 2.381 0.79 4.376 0 6.487-2.564 7.759-10.872 7.759-10.872l0.453-0.472c0.752-0.79 1.166-1.783 1.166-2.814v-2.14c-0.010-0.463-0.434-0.839-0.954-0.839z"></path>
<path fill="#4e3726" style="fill: var(--color2, #4e3726)" d="M32.768 6.602c0.646-0.164 1.34 0.251 1.34 0.251-0.713-0.867-1.831-0.549-2.294-0.357 0.087-1.022 0.135-4.067-2.381-4.906 0 0 1.292 0.713 1.831 3.075-0.761-1.764-2.872-4.154-8.733-4.347-9.417-0.318-10.708 8.222-10.708 8.222l0.492 0.395 0.453 0.366 0.761 7.923c0 0 0.125-8.53 1.677-9.629s3.017 0.569 7.306 0.569 4.116-1.263 7.084-0.501c2.988 0.752 2.352 10.622 2.352 10.622s1.899-10.313 1.581-11.133c-0.116-0.328-0.424-0.482-0.761-0.549z"></path>
<path fill="#754c24" style="fill: var(--color3, #754c24)" d="M26.059 7.749c0 0-6.949-5.051-12.308-3.113 0 0 5.311-2.236 9.099-0.405 3.441 1.668 5.108 3.171 5.108 3.171l-1.899 0.347z"></path>
<path fill="#754c24" style="fill: var(--color3, #754c24)" d="M26.059 7.749c0 0-7.586-4.019-11.219-0.222 0 0 1.976-3.094 7.46-1.899s5.224 1.86 5.224 1.86l-1.465 0.26z"></path>
<path fill="#754c24" style="fill: var(--color3, #754c24)" d="M29.423 6.294c0 0-1.677-1.745-3.422-2.467 0 0 1.263 0.241 1.957 0.704 0.704 0.463-1.455-1.523-2.496-1.841 0 0 2.149 0.54 3.576 1.802s1.388 1.61 1.388 1.61l-1.581-1.080c0.010 0 0.482 0.511 0.578 1.272z"></path>
<path fill="#4e3726" style="fill: var(--color2, #4e3726)" d="M21.288 13.571c0 0 0 0.598-0.598 0.858-0.511 0.222-3.402-0.511-4.212-0.337s-1.764 0.81-1.764 0.81 1.214-1.533 1.986-1.6c0.781-0.067 4.588 0.27 4.588 0.27z"></path>
<path fill="#4e3726" style="fill: var(--color2, #4e3726)" d="M24.392 13.668c0 0 0.019 0.598 0.617 0.839 0.511 0.212 3.383-0.607 4.202-0.463s1.783 0.752 1.783 0.752-1.263-1.494-2.034-1.533c-0.771-0.039-4.569 0.405-4.569 0.405z"></path>
<path fill="#4e3726" style="fill: var(--color2, #4e3726)" d="M27.563 24.482c-0.386-1.176-3.21-1.253-4.732-1.253-1.465 0-4.337 0.077-4.713 1.253-0.598 1.851 0.222 2.911 0.222 2.911s0.058-1.966 2.12-1.966c1.851 0 2.294-0.646 2.371-0.781 0.125 0.135 0.54 0.781 2.381 0.781 2.063 0 2.13 1.966 2.13 1.966s0.829-1.060 0.222-2.911z"></path>
</symbol>
<symbol id="icon-man6" viewBox="0 0 46 32">
<title>man6</title>
<path fill="#f0b289" style="fill: var(--color1, #f0b289)" d="M32.496 13.161h-0.631v-2.65c0-4.408-4.029-7.987-9.005-7.987s-9.005 3.579-9.005 7.987v2.65h-0.64c-0.487 0-0.883 0.352-0.883 0.784v2.001c0 0.964 0.388 1.902 1.091 2.632l0.424 0.442 0.009-0.117v0.117c0 0 1.154 7.599 6.67 10.168 1.298 0.604 2.227 0.739 4.092 0 6.067-2.398 7.256-10.168 7.256-10.168l0.424-0.442c0.703-0.739 1.091-1.668 1.091-2.632v-2.001c-0.009-0.433-0.406-0.784-0.892-0.784z"></path>
<path fill="#4e3726" style="fill: var(--color2, #4e3726)" d="M32.126 6.175c0.604-0.153 1.253 0.234 1.253 0.234-0.667-0.811-1.713-0.514-2.145-0.333 0.081-0.955 0.126-3.804-2.227-4.588 0 0 1.208 0.667 1.713 2.876-0.712-1.65-2.686-3.885-8.167-4.065-8.807-0.297-10.015 7.689-10.015 7.689l0.46 0.37 0.424 0.343 0.712 7.41c0 0 0.117-7.977 1.568-9.005s2.821 0.532 6.833 0.532c4.011 0 3.849-1.181 6.625-0.469 2.785 0.712 2.19 9.943 2.19 9.943s1.776-9.645 1.478-10.411c-0.108-0.315-0.397-0.46-0.703-0.523z"></path>
<path fill="#754c24" style="fill: var(--color3, #754c24)" d="M25.843 7.247c0 0-6.499-4.723-11.511-2.912 0 0 4.967-2.091 8.509-0.379 3.218 1.559 4.778 2.966 4.778 2.966l-1.776 0.325z"></path>
<path fill="#754c24" style="fill: var(--color3, #754c24)" d="M25.843 7.247c0 0-7.094-3.759-10.492-0.207 0 0 1.848-2.894 6.977-1.776s4.886 1.74 4.886 1.74l-1.37 0.243z"></path>
<path fill="#754c24" style="fill: var(--color3, #754c24)" d="M28.989 5.886c0 0-1.568-1.632-3.191-2.308 0 0 1.181 0.225 1.83 0.658 0.658 0.433-1.361-1.424-2.335-1.722 0 0 2.010 0.505 3.344 1.686s1.298 1.505 1.298 1.505l-1.478-1.010c0 0 0.442 0.478 0.532 1.19z"></path>
<path fill="#4e3726" style="fill: var(--color2, #4e3726)" d="M21.39 12.692c0 0 0 0.559-0.559 0.802-0.478 0.207-3.182-0.478-3.939-0.315s-1.65 0.757-1.65 0.757 1.136-1.433 1.857-1.496c0.73-0.063 4.291 0.252 4.291 0.252z"></path>
<path fill="#4e3726" style="fill: var(--color2, #4e3726)" d="M24.293 12.782c0 0 0.018 0.559 0.577 0.784 0.478 0.198 3.164-0.568 3.93-0.433s1.668 0.703 1.668 0.703-1.181-1.397-1.902-1.433c-0.721-0.036-4.273 0.379-4.273 0.379z"></path>
<path fill="#4e3726" style="fill: var(--color2, #4e3726)" d="M27.88 27.223l-1.019-2.371c0.054 0.234 0.081 0.442 0.081 0.658 0 1.578-0.225 1.758-1.749 1.758s-1.433-1.397-1.433-1.397c0.117-0.117 0.784 0.063 0.784 0.063l0.027-0.261c0-0.216-1.073-0.315-1.722-0.325-0.694 0-1.731 0.099-1.731 0.325l0.018 0.261c0 0 0.658-0.18 0.775-0.063 0 0 0.090 1.397-1.433 1.397s-1.749-0.18-1.749-1.758c0-0.225 0.027-0.424 0.081-0.658l-1.019 2.371c-0.018 1.433 0.207 1.857 0.568 2.344 0.46 0.631 2.344 2.434 4.489 2.434 2.127 0 4.020-1.803 4.48-2.434 0.343-0.487 0.559-0.91 0.55-2.344z"></path>
</symbol>
<symbol id="icon-man" viewBox="0 0 46 32">
<title>man</title>
<path fill="#f0b289" style="fill: var(--color1, #f0b289)" d="M33.163 14.072h-0.675v-2.834c0-4.713-4.308-8.54-9.629-8.54s-9.629 3.826-9.629 8.54v2.834h-0.684c-0.52 0-0.945 0.376-0.945 0.839v2.14c0 1.031 0.414 2.034 1.166 2.814l0.453 0.472 0.010-0.125v0.125c0 0 1.234 8.125 7.133 10.872 1.388 0.646 2.381 0.79 4.376 0 6.487-2.564 7.759-10.872 7.759-10.872l0.453-0.472c0.752-0.79 1.166-1.783 1.166-2.814v-2.14c-0.010-0.463-0.434-0.839-0.954-0.839z"></path>
<path fill="#4e3726" style="fill: var(--color2, #4e3726)" d="M32.768 6.602c0.646-0.164 1.34 0.251 1.34 0.251-0.713-0.867-1.831-0.549-2.294-0.357 0.087-1.022 0.135-4.067-2.381-4.906 0 0 1.292 0.713 1.831 3.075-0.761-1.764-2.872-4.154-8.733-4.347-9.417-0.318-10.708 8.222-10.708 8.222l0.492 0.395 0.453 0.366 0.761 7.923c0 0 0.125-8.53 1.677-9.629s3.017 0.569 7.306 0.569 4.116-1.263 7.084-0.501c2.978 0.761 2.342 10.631 2.342 10.631s1.899-10.313 1.581-11.133c-0.106-0.337-0.414-0.492-0.752-0.559z"></path>
<path fill="#754c24" style="fill: var(--color3, #754c24)" d="M26.059 7.749c0 0-6.949-5.051-12.308-3.113 0 0 5.311-2.236 9.099-0.405 3.441 1.668 5.108 3.171 5.108 3.171l-1.899 0.347z"></path>
<path fill="#754c24" style="fill: var(--color3, #754c24)" d="M26.059 7.749c0 0-7.586-4.019-11.219-0.222 0 0 1.976-3.094 7.46-1.899s5.224 1.86 5.224 1.86l-1.465 0.26z"></path>
<path fill="#754c24" style="fill: var(--color3, #754c24)" d="M29.423 6.294c0 0-1.677-1.745-3.412-2.467 0 0 1.263 0.241 1.957 0.704 0.704 0.463-1.455-1.523-2.496-1.841 0 0 2.149 0.54 3.576 1.802s1.388 1.61 1.388 1.61l-1.581-1.080c0 0 0.472 0.511 0.569 1.272z"></path>
<path fill="#4e3726" style="fill: var(--color2, #4e3726)" d="M21.288 13.571c0 0 0 0.598-0.598 0.858-0.511 0.222-3.402-0.511-4.212-0.337s-1.764 0.81-1.764 0.81 1.214-1.533 1.986-1.6c0.781-0.058 4.588 0.27 4.588 0.27z"></path>
<path fill="#4e3726" style="fill: var(--color2, #4e3726)" d="M24.392 13.667c0 0 0.019 0.598 0.617 0.839 0.511 0.212 3.383-0.607 4.202-0.463s1.783 0.752 1.783 0.752-1.263-1.484-2.034-1.533c-0.771-0.039-4.569 0.405-4.569 0.405z"></path>
<path fill="#4e3726" style="fill: var(--color2, #4e3726)" d="M17.278 30.294c0.366 0.328 0.665 0.087 0.607-0.164-0.067-0.299 0.145-1.089 0.405-2.294 0.27-1.195-0.569-2.487-0.578-2.496-1.272-1.783-2.766-3.065-2.988-3.749-0.463-1.398-1.195-4.376-1.195-4.376l-0.067 0.164c0 0-0.453 2.564 0.174 5.080 0.308 1.224 2.506 6.448 3.441 7.605 0.077 0.077 0.135 0.154 0.202 0.231z"></path>
<path fill="#4e3726" style="fill: var(--color2, #4e3726)" d="M28.43 30.294c-0.366 0.328-0.665 0.087-0.607-0.164 0.067-0.299-0.145-1.089-0.405-2.294-0.27-1.195 0.569-2.487 0.578-2.496 1.272-1.783 2.766-3.065 2.988-3.749 0.463-1.398 1.195-4.376 1.195-4.376l0.067 0.164c0 0 0.453 2.564-0.173 5.080-0.308 1.224-2.506 6.448-3.441 7.605-0.077 0.077-0.145 0.154-0.202 0.231z"></path>
<path fill="#4e3726" style="fill: var(--color2, #4e3726)" d="M27.563 24.482c-0.386-1.176-3.21-1.253-4.732-1.253-1.465 0-4.337 0.077-4.713 1.253-0.598 1.851 0.222 2.911 0.222 2.911s0.058-1.966 2.12-1.966c1.851 0 2.294-0.646 2.371-0.781 0.125 0.135 0.54 0.781 2.381 0.781 2.063 0 2.13 1.966 2.13 1.966s0.829-1.060 0.222-2.911z"></path>
</symbol>
<symbol id="icon-woman1" viewBox="0 0 33 32">
<title>woman2</title>
<path fill="#4a4742" style="fill: var(--color1, #4a4742)" d="M24.604 13.178c-0.864 6.811-3.704 9.884-8.283 9.884-4.568 0-8.424-4.428-8.283-9.884 0 0-0.502-8.096 3.68-9.79 3.482-1.414 6.227-1.647 7.629 0.397 0 0 0.958-1.285 2.64 0.199 1.016 0.888 3.493 2.348 2.617 9.195z"></path>
<path fill="#fbd8b0" style="fill: var(--color2, #fbd8b0)" d="M29.23 32c-0.175-0.853-0.351-1.706-0.467-2.185-0.526-2.091-6.052-4.334-8.143-4.486-0.794-0.058-1.344-0.456-1.717-0.923-0.175-0.222-0.315-0.456-0.421-0.689-0.654 0.292-1.355 0.456-2.091 0.456-0.818 0-1.601-0.199-2.325-0.561-0.094 0.222-0.222 0.456-0.386 0.689-0.374 0.514-0.946 0.97-1.799 1.028-2.091 0.152-7.629 2.395-8.143 4.486-0.117 0.491-0.292 1.332-0.467 2.185h25.96z"></path>
<path fill="#fbd8b0" style="fill: var(--color2, #fbd8b0)" d="M22.664 16.485c0 4.077-2.816 7.688-6.286 7.688s-6.286-3.61-6.286-7.688v-3.902c0 0 6.192-0.070 9.405-3.668 0 0 0.619 1.939 3.084 3.54l0.082 4.031z"></path>
<path fill="#eac096" style="fill: var(--color3, #eac096)" d="M18.891 24.406c-0.771 0.421-1.624 0.666-2.524 0.666-0.97 0-1.881-0.28-2.71-0.771 0.164-0.222 0.292-0.467 0.386-0.689 0.713 0.362 1.495 0.561 2.325 0.561 0.736 0 1.437-0.164 2.091-0.456 0.117 0.234 0.257 0.467 0.432 0.689z"></path>
<path fill="#4a4742" style="fill: var(--color1, #4a4742)" d="M21.11 3.365c0 1.858-1.841 3.365-4.112 3.365s-4.112-1.506-4.112-3.365c0-1.858 1.841-3.365 4.112-3.365s4.112 1.506 4.112 3.365z"></path>
</symbol>
<symbol id="icon-woman2" viewBox="0 0 46 32">
<title>woman22</title>
<path fill="#7c2203" style="fill: var(--color4, #7c2203)" d="M21.44 2.623c0 0 1.847-2.623 6.409-2.178 2.874 0.285 5.018 3.695 5.189 8.701 0.148 4.083 0.867 10.332 3.433 8.542 0 0-4.231 5.406-6.763-0.889-2.258-5.599-1.22-10.195-2.931-10.88-1.711-0.696-5.337-3.296-5.337-3.296z"></path>
<path fill="#fbd8b0" style="fill: var(--color2, #fbd8b0)" d="M28.1 12.932l0.080 3.923c0 3.98-2.748 7.504-6.135 7.504s-6.135-3.524-6.135-7.504v-3.809l12.191-0.114z"></path>
<path fill="#fbd8b0" style="fill: var(--color2, #fbd8b0)" d="M34.589 32c-0.171-0.833-0.342-1.665-0.456-2.133-0.513-2.041-5.907-4.231-7.949-4.379-0.775-0.057-1.311-0.445-1.676-0.901-0.171-0.217-0.308-0.445-0.411-0.673-0.639 0.285-1.323 0.445-2.041 0.445-0.798 0-1.562-0.194-2.269-0.547-0.091 0.217-0.217 0.445-0.376 0.673-0.365 0.502-0.924 0.947-1.756 1.004-2.041 0.148-7.447 2.338-7.949 4.379-0.114 0.479-0.285 1.3-0.456 2.133h25.34z"></path>
<path fill="#fbd8b0" style="fill: var(--color2, #fbd8b0)" d="M28.1 8.439l0.080 8.416c0 3.98-2.748 7.504-6.135 7.504s-6.135-3.524-6.135-7.504v-8.302l12.191-0.114z"></path>
<path fill="#eac096" style="fill: var(--color3, #eac096)" d="M24.507 24.587c-0.753 0.411-1.585 0.65-2.463 0.65-0.947 0-1.836-0.274-2.646-0.753 0.16-0.217 0.285-0.456 0.376-0.673 0.696 0.354 1.46 0.547 2.269 0.547 0.718 0 1.403-0.16 2.041-0.445 0.114 0.228 0.239 0.456 0.422 0.673z"></path>
<path fill="#9e2e00" style="fill: var(--color5, #9e2e00)" d="M27.86 12.944c1.015 4.083-2.532 7.299 0.947 10.606 0 0-0.137-1.847 0.912-5.577 1.163-4.151 2.532-14.734-4.482-15.897-1.528-0.251-5.383-1.266-9.123 2.406-5.451 5.349-1.129 13.845-0.354 15.304s1.152 4.185 1.152 4.185 1.163-1.311 0.661-4.448-1.391-6.785 0.068-8.097c0 0 6.489-1.437 7.31-2.509 0.011-0.023 2.418 2.053 2.908 4.026z"></path>
<path fill="#9e2e00" style="fill: var(--color5, #9e2e00)" d="M13.422 11.815c0 0 0.274 4.733 1.083 7.55 0.331 1.163 0.308 2.623 0.308 2.623s0.753-0.582 0.661-2.623c-0.103-2.041 0.239-4.231 0.239-4.231l-0.103-3.695-2.19 0.376z"></path>
</symbol>
<symbol id="icon-woman3" viewBox="0 0 46 32">
<title>woman3</title>
<path fill="#b25032" style="fill: var(--color6, #b25032)" d="M25.742 29.627l-0.104-2.86c0 0-0.938 1.378-6.148-0.197-5.21-1.586-3.96-4.839-3.96-4.839-1.459 0.59-1.563 3.855-1.563 3.855-2.813-2.373 0.313-8.104 0.313-8.104s0 0-0.938 0.394-1.355 2.072-1.355 2.072c-1.76-3.056 2.408-7.016 2.408-7.016-0.753 0.706-2.755 1.181-2.755 1.181s2.605-1.864 3.635-6.912c1.459-7.201 9.725-4.839 9.725-4.839s6.287-1.679 6.321 4.446c0.035 6.159 2.813 7.062 2.813 7.062s-2.026-0.15-2.86-0.637c0 0 2.663 2.177 2.767 5.58l-2.466-1.632c0 0 2.813 4.839-0.035 7.803 0 0-0.567-2.86-1.609-3.462v0c0.289 1.586-0.336 3.207-1.644 4.237l-0.753 0.602-1.794 3.265z"></path>
<path fill="#fbd8b0" style="fill: var(--color2, #fbd8b0)" d="M35.722 32c-0.174-0.845-0.347-1.69-0.463-2.165-0.521-2.072-5.997-4.295-8.069-4.446-0.787-0.058-1.331-0.451-1.702-0.915-0.174-0.22-0.313-0.451-0.417-0.683-0.648 0.289-1.343 0.451-2.072 0.451-0.81 0-1.586-0.197-2.304-0.556-0.093 0.22-0.22 0.451-0.382 0.683-0.37 0.509-0.938 0.961-1.783 1.019-2.072 0.15-7.56 2.373-8.069 4.446-0.116 0.486-0.289 1.32-0.463 2.165h25.725z"></path>
<path fill="#fbd8b0" style="fill: var(--color2, #fbd8b0)" d="M28.984 12.654l0.081 3.983c0 4.041-2.79 7.618-6.229 7.618s-6.229-3.577-6.229-7.618v-3.867z"></path>
<path fill="#fbd8b0" style="fill: var(--color2, #fbd8b0)" d="M28.984 12.654l0.081 3.983c0 4.041-2.79 7.618-6.229 7.618s-6.229-3.577-6.229-7.618v-3.867c0 0 3.022-1.216 4.017-2.049l-1.482 1.679c0 0 3.114-1.088 4.052-2.072l-0.764 1.239c0 0 2.35-0.892 2.987-1.586 0 0 0.845 0.81 1.922 1.609l-0.475-1.609c0-0.012 1.007 1.447 2.119 2.674z"></path>
<path fill="#eac096" style="fill: var(--color3, #eac096)" d="M25.43 24.486c-0.764 0.417-1.609 0.66-2.501 0.66-0.961 0-1.864-0.278-2.686-0.764 0.162-0.22 0.289-0.463 0.382-0.683 0.706 0.359 1.482 0.556 2.304 0.556 0.729 0 1.424-0.162 2.072-0.451 0.116 0.22 0.255 0.463 0.428 0.683z"></path>
</symbol>
<symbol id="icon-woman4" viewBox="0 0 46 32">
<title>woman4</title>
<path fill="#7c0d19" style="fill: var(--color7, #7c0d19)" d="M32.583 9.455c-0.665-9.443-8.496-9.2-9.878-9.084-1.382-0.115-9.212-0.371-9.878 9.084-0.742 10.377-2.214 18.45-2.214 18.45h24.195c-0.026 0-1.497-8.074-2.226-18.45z"></path>
<path fill="#fbd8b0" style="fill: var(--color2, #fbd8b0)" d="M37.074 32c-0.192-0.934-0.384-1.868-0.512-2.393-0.576-2.29-6.628-4.747-8.918-4.913-0.87-0.064-1.471-0.499-1.881-1.011-0.192-0.243-0.345-0.499-0.461-0.755-0.716 0.32-1.484 0.499-2.29 0.499-0.896 0-1.753-0.217-2.546-0.614-0.102 0.243-0.243 0.499-0.422 0.755-0.409 0.563-1.036 1.062-1.97 1.126-2.29 0.166-8.355 2.623-8.918 4.913-0.128 0.537-0.32 1.459-0.512 2.393h28.43z"></path>
<path fill="#fbd8b0" style="fill: var(--color2, #fbd8b0)" d="M29.884 15.021c0 4.465-3.084 8.419-6.884 8.419s-6.884-3.954-6.884-8.419v-4.274c0 0 9.072-0.601 13.678-0.128l0.090 4.401z"></path>
<path fill="#fbd8b0" style="fill: var(--color2, #fbd8b0)" d="M29.884 15.021c0 4.465-3.084 8.419-6.884 8.419s-6.884-3.954-6.884-8.419v-4.274c0 0 2.367-0.166 5.451-0.256 0.384-0.013 1.343-2.188 1.343-2.188s1.024 2.137 1.523 2.124c1.945-0.013 3.877 0.026 5.348 0.179l0.102 4.414z"></path>
<path fill="#eac096" style="fill: var(--color3, #eac096)" d="M25.751 23.696c-0.844 0.461-1.778 0.729-2.764 0.729-1.062 0-2.060-0.307-2.968-0.844 0.179-0.243 0.32-0.512 0.422-0.755 0.78 0.397 1.638 0.614 2.546 0.614 0.806 0 1.574-0.179 2.29-0.499 0.128 0.243 0.282 0.512 0.473 0.755z"></path>
</symbol>
<symbol id="icon-woman5" viewBox="0 0 46 32">
<title>woman5</title>
<path fill="#e2ae1a" style="fill: var(--color8, #e2ae1a)" d="M33.303 19.591c-2.909-2.523-1.080-5.034-1.523-11.023-0.364-4.943-3.796-6.568-5.966-5.966-0.75-0.205-9.966-2.602-11.648 6.125-1.136 5.909 1.159 8.341-1.75 10.864-3.523 3.057 1.557 11.148 9.216 6.5 0.443-0.273 0.852-0.557 1.227-0.852 0.375 0.295 0.784 0.58 1.227 0.852 7.659 4.648 12.739-3.443 9.216-6.5z"></path>
<path fill="#fbd8b0" style="fill: var(--color2, #fbd8b0)" d="M35.053 32c-0.17-0.83-0.341-1.659-0.455-2.125-0.511-2.034-5.886-4.216-7.92-4.364-0.773-0.057-1.307-0.443-1.67-0.898-0.17-0.216-0.307-0.443-0.409-0.67-0.636 0.284-1.318 0.443-2.034 0.443-0.795 0-1.557-0.193-2.261-0.546-0.091 0.216-0.216 0.443-0.375 0.67-0.364 0.5-0.921 0.943-1.75 1-2.034 0.148-7.42 2.329-7.92 4.364-0.114 0.477-0.284 1.295-0.455 2.125h25.25z"></path>
<path fill="#fbd8b0" style="fill: var(--color2, #fbd8b0)" d="M28.587 13.011l0.079 3.909c0 3.966-2.739 7.477-6.114 7.477s-6.114-3.511-6.114-7.477v-3.796z"></path>
<path fill="#fbd8b0" style="fill: var(--color2, #fbd8b0)" d="M28.587 13.011l0.079 3.909c0 3.966-2.739 7.477-6.114 7.477s-6.114-3.511-6.114-7.477v-3.796c0 0 6.489-1.045 8.864-3.466 0 0 0.648 2.375 3.284 3.352z"></path>
<path fill="#eac096" style="fill: var(--color3, #eac096)" d="M25.007 24.625c-0.75 0.409-1.58 0.648-2.455 0.648-0.943 0-1.83-0.273-2.636-0.75 0.159-0.216 0.284-0.455 0.375-0.67 0.693 0.352 1.455 0.546 2.261 0.546 0.716 0 1.398-0.159 2.034-0.443 0.102 0.216 0.239 0.455 0.42 0.67z"></path>
</symbol>
<symbol id="icon-woman6" viewBox="0 0 46 32">
<title>woman6</title>
<path fill="#9e2e00" style="fill: var(--color5, #9e2e00)" d="M26.185 19.366c0 0 1.475 2.576-0.702 3.033-2.178 0.445-5.69 0.445-5.69 0.445s-2.471-0.749-2.845-1.651c0 0 0.070 1.346 0.82 2.248 0 0-6.592-6.147-3.817-12.435l-1.346 1.276c0 0 0.972-12.282 11.767-10.936l-1.522-0.574c0 0 3.103-0.773 4.449 1.019 0 0 1.873-0.222 2.4 0.070l-1.428 0.445c0 0 6.1 3.817 4.601 9.742 0 0-0.386-0.761-1.136-1.136 0 0 2.752 5.597-2.798 12.236 0 0 0.527-2.049 0.375-2.845 0 0-1.569 2.096-2.424 1.85s-0.702-2.787-0.702-2.787z"></path>
<path fill="#fbd8b0" style="fill: var(--color2, #fbd8b0)" d="M35.868 32c-0.176-0.855-0.351-1.71-0.468-2.19-0.527-2.096-6.065-4.344-8.161-4.496-0.796-0.058-1.346-0.457-1.721-0.925-0.176-0.222-0.316-0.457-0.422-0.691-0.656 0.293-1.358 0.457-2.096 0.457-0.82 0-1.604-0.199-2.33-0.562-0.094 0.222-0.222 0.457-0.386 0.691-0.375 0.515-0.948 0.972-1.803 1.030-2.096 0.152-7.646 2.4-8.161 4.496-0.117 0.492-0.293 1.335-0.468 2.19h26.017z"></path>
<path fill="#fbd8b0" style="fill: var(--color2, #fbd8b0)" d="M29.206 12.435l0.082 4.028c0 4.086-2.822 7.704-6.299 7.704s-6.299-3.618-6.299-7.704v-3.911z"></path>
<path fill="#fbd8b0" style="fill: var(--color2, #fbd8b0)" d="M29.206 12.435l0.082 4.028c0 4.086-2.822 7.704-6.299 7.704s-6.299-3.618-6.299-7.704v-3.911c0 0 7.458-1.85 9.109-3.723 0 0-1.042 1.663-2.634 2.459 0 0 2.939-0.059 4.063-1.78-0.012 0 1.194 2.553 1.979 2.927z"></path>
<path fill="#eac096" style="fill: var(--color3, #eac096)" d="M25.506 24.401c-0.773 0.422-1.628 0.667-2.529 0.667-0.972 0-1.885-0.281-2.716-0.773 0.164-0.222 0.293-0.468 0.386-0.691 0.714 0.363 1.499 0.562 2.33 0.562 0.738 0 1.44-0.164 2.096-0.457 0.117 0.222 0.258 0.468 0.433 0.691z"></path>
</symbol>
<symbol id="icon-woman7" viewBox="0 0 46 32">
<title>woman7</title>
<path fill="#4a4742" style="fill: var(--color1, #4a4742)" d="M22.712 1.183c-1.466-0.801-3.387-0.135-4.816 0.714-0.64 0.37-1.367 1.096-1.54 1.786-0.554 2.205-0.924 3.141-1.737 3.56-1.749 0.911-1.651 2.353-1.010 4.237s1.047 1.38 0.025 3.116c-1.022 1.737-1.737 2.599-0.862 3.781 0.862 1.182-0.025 2.808-0.764 3.806s-1.047 2.574 0.899 4.36 2.895 2.156 2.993 3.313c0.111 1.158 4.57 0.111 4.57 0.111l3.621-0.899 6.565 0.468c0 0 3.042-0.739 1.897-2.895-1.158-2.156 0.468-4.052 0.468-5.617 0-1.577-1.577-1.946-1.207-3.104s1.737-2.414 1.158-3.991c-0.579-1.577-1.109-3.264-0.788-4.52s-3.202-9.41-6.466-8.252c-1.823 0.64-1.934 0.604-3.005 0.025z"></path>
<path fill="#fbd8b0" style="fill: var(--color2, #fbd8b0)" d="M36.544 32c-0.185-0.899-0.37-1.798-0.493-2.303-0.554-2.205-6.38-4.57-8.585-4.73-0.838-0.062-1.416-0.48-1.811-0.973-0.185-0.234-0.333-0.48-0.443-0.727-0.69 0.308-1.429 0.48-2.205 0.48-0.862 0-1.687-0.209-2.451-0.591-0.099 0.234-0.234 0.48-0.406 0.727-0.394 0.542-0.998 1.022-1.897 1.084-2.205 0.16-8.043 2.525-8.585 4.73-0.123 0.517-0.308 1.404-0.493 2.303h27.369z"></path>
<path fill="#fbd8b0" style="fill: var(--color2, #fbd8b0)" d="M29.523 11.406l0.086 4.237c0 4.299-2.968 8.105-6.627 8.105s-6.627-3.806-6.627-8.105v-4.114z"></path>
<path fill="#fbd8b0" style="fill: var(--color2, #fbd8b0)" d="M29.523 11.406l0.086 4.237c0 4.299-2.968 8.105-6.627 8.105s-6.627-3.806-6.627-8.105v-4.114c0 0 3.757-2.488 5.062-3.363 1.416-0.936 2.143 2.587 8.105 3.239z"></path>
<path fill="#eac096" style="fill: var(--color3, #eac096)" d="M25.643 23.994c-0.813 0.443-1.712 0.702-2.661 0.702-1.022 0-1.983-0.296-2.858-0.813 0.172-0.234 0.308-0.493 0.406-0.727 0.751 0.382 1.577 0.591 2.451 0.591 0.776 0 1.515-0.172 2.205-0.48 0.123 0.246 0.259 0.493 0.456 0.727z"></path>
</symbol>
<symbol id="icon-woman8" viewBox="0 0 45 32">
<title>woman8</title>
<path fill="#fbca25" style="fill: var(--color9, #fbca25)" d="M34.060 15.214c-1.444-1.491-2.015-3.052-2.388-7.153s-4.625-5.871-4.625-5.871-9.587-2.19-11.882 3.728c-1.817 4.695-0.652 6.151-2.738 8.084s-3.716 8.259-0.443 10.053c0 0-0.699-1.689 0.594-2.586 0 0-0.594 2.19 3.879 2.982 0 0-0.594-1.445-0.501-1.794 0 0 2.936 2.586 6.756 1.934 0.396-0.070 0.745-0.175 1.060-0.326 6.139 0.489 7.793-3.308 7.793-3.308 0.792 0.99 0.163 3.087 0.163 3.087 4.776-2.47 4.147-6.943 2.33-8.83z"></path>
<path fill="#fbd8b0" style="fill: var(--color2, #fbd8b0)" d="M35.901 32c-0.175-0.85-0.349-1.701-0.466-2.178-0.524-2.085-6.034-4.322-8.119-4.473-0.792-0.058-1.34-0.454-1.712-0.92-0.175-0.221-0.314-0.454-0.419-0.687-0.652 0.291-1.351 0.454-2.085 0.454-0.815 0-1.596-0.198-2.318-0.559-0.093 0.221-0.221 0.454-0.384 0.687-0.373 0.513-0.944 0.967-1.794 1.025-2.085 0.151-7.607 2.388-8.119 4.473-0.117 0.489-0.291 1.328-0.466 2.178h25.884z"></path>
<path fill="#fbd8b0" style="fill: var(--color2, #fbd8b0)" d="M29.261 12.534l0.081 4.007c0 4.066-2.807 7.665-6.267 7.665s-6.267-3.6-6.267-7.665v-3.891z"></path>
<path fill="#fbd8b0" style="fill: var(--color2, #fbd8b0)" d="M29.261 12.534l0.081 4.007c0 4.066-2.807 7.665-6.267 7.665s-6.267-3.6-6.267-7.665v-3.891c0 0 2.959-1.223 3.891-1.782l-1.91 1.806c0 0 2.12-0.326 5.172-1.887l-1.223 1.608c0 0 2.971-0.664 3.856-1.852 0.012-0.012 0.909 1.549 2.668 1.992z"></path>
<path fill="#eac096" style="fill: var(--color3, #eac096)" d="M25.591 24.44c-0.769 0.419-1.619 0.664-2.516 0.664-0.967 0-1.875-0.28-2.703-0.769 0.163-0.221 0.291-0.466 0.384-0.687 0.711 0.361 1.491 0.559 2.318 0.559 0.734 0 1.433-0.163 2.085-0.454 0.116 0.221 0.245 0.466 0.431 0.687z"></path>
</symbol>
<symbol id="icon-woman9" viewBox="0 0 46 32">
<title>woman9</title>
<path fill="#4a4742" style="fill: var(--color1, #4a4742)" d="M32.329 9.353c0-6.873-4.457-9.276-8.992-9.315-4.586-0.039-9.767 2.028-9.767 9.315 0 8.048-1.163 10.942-1.201 11.188 0 0.013 0 0.013 0.013 0.013h21.135c0.013 0 0.013-0.013 0.013-0.013-0.039-0.258-1.202-3.139-1.202-11.188z"></path>
<path fill="#fbd8b0" style="fill: var(--color2, #fbd8b0)" d="M37.212 32c-0.194-0.943-0.388-1.886-0.517-2.416-0.581-2.313-6.692-4.793-9.004-4.961-0.878-0.065-1.486-0.504-1.899-1.021-0.194-0.245-0.349-0.504-0.465-0.762-0.723 0.323-1.499 0.504-2.313 0.504-0.904 0-1.77-0.22-2.571-0.62-0.103 0.245-0.245 0.504-0.426 0.762-0.413 0.569-1.046 1.072-1.989 1.137-2.313 0.168-8.436 2.648-9.004 4.961-0.129 0.543-0.323 1.473-0.517 2.416h28.706z"></path>
<path fill="#fbd8b0" style="fill: var(--color2, #fbd8b0)" d="M29.952 14.857c0 4.509-3.113 8.501-6.95 8.501s-6.95-3.992-6.95-8.501v-4.315c0 0 5.038-0.478 7.067-3.488 0 0 2.093 2.881 6.744 3.359l0.090 4.444z"></path>
<path fill="#eac096" style="fill: var(--color3, #eac096)" d="M25.779 23.616c-0.853 0.465-1.796 0.736-2.791 0.736-1.072 0-2.080-0.31-2.997-0.853 0.181-0.245 0.323-0.517 0.426-0.762 0.788 0.4 1.654 0.62 2.571 0.62 0.814 0 1.589-0.181 2.313-0.504 0.129 0.245 0.284 0.517 0.478 0.762z"></path>
<path fill="#eac096" style="fill: var(--color3, #eac096)" d="M23.195 24.339c0.917-0.039 1.796-0.297 2.584-0.736-0.194-0.245-0.349-0.504-0.465-0.762-0.672 0.297-1.382 0.478-2.119 0.504v0.995z"></path>
</symbol>
</defs>
</svg>
